Coordinates
version=1
nRows=10
nColumns=40
inDegrees=yes

Units are S.I. units (second, meters, Newtons, ...)
If the header above contains a line with 'inDegrees', this indicates whether rotational values are in degrees (yes) or radians (no).

endheader
time	pelvis_tilt	pelvis_list	pelvis_rotation	pelvis_tx	pelvis_ty	pelvis_tz	hip_flexion_r	hip_adduction_r	hip_rotation_r	knee_angle_r	knee_angle_r_beta	ankle_angle_r	subtalar_angle_r	mtp_angle_r	hip_flexion_l	hip_adduction_l	hip_rotation_l	knee_angle_l	knee_angle_l_beta	ankle_angle_l	subtalar_angle_l	mtp_angle_l	lumbar_extension	lumbar_bending	lumbar_rotation	arm_flex_r	arm_add_r	arm_rot_r	elbow_flex_r	pro_sup_r	wrist_flex_r	wrist_dev_r	arm_flex_l	arm_add_l	arm_rot_l	elbow_flex_l	pro_sup_l	wrist_flex_l	wrist_dev_l
      1.30000000	      2.74756843	      1.45795343	      1.82485006	     -0.30068750	      1.05617306	     -1.13167336	      0.56047412	     -3.22300289	     -0.28035573	     77.76569910	      1.35726749	     -5.51724550	      0.00000000	      0.00000000	      5.90797432	      5.44506856	     -2.24944548	     17.11456940	      0.29870559	     -4.25978078	      0.00000000	      0.00000000	    -18.34631210	     -7.50698971	     -0.23177422	     79.41920122	     -1.91642621	     31.40338897	     35.41135773	     86.41513750	      0.00000000	      0.00000000	     89.29301208	    -11.06389179	     55.50374903	     37.85113628	     86.45145552	      0.00000000	      0.00000000
      1.30500000	      2.63259392	      1.47387527	      1.93059661	     -0.30079863	      1.05609391	     -1.13178399	      0.63408899	     -3.23571012	     -0.33802780	     77.69298064	      1.35599832	     -5.61805381	      0.00000000	      0.00000000	      6.06008423	      5.45304375	     -2.30702596	     17.16946815	      0.29966375	     -4.28361459	      0.00000000	      0.00000000	    -18.27737324	     -7.51091632	     -0.36117621	     79.43195183	     -1.85218379	     31.28680324	     35.29688323	     86.30100493	      0.00000000	      0.00000000	     89.30217602	    -11.10270618	     55.56076087	     37.89061483	     86.56090878	      0.00000000	      0.00000000
      1.31000000	      2.72164031	      1.45946952	      2.08366539	     -0.30036926	      1.05601649	     -1.13186993	      0.39997526	     -3.18117799	     -0.46671230	     77.55400133	      1.35357267	     -5.60548846	      0.00000000	      0.00000000	      5.93302005	      5.41629405	     -2.33417910	     17.17729316	      0.29980032	     -4.19412140	      0.00000000	      0.00000000	    -18.38072520	     -7.45759086	     -0.53838930	     79.45210533	     -1.82361591	     31.34720490	     35.26243629	     86.18551532	      0.00000000	      0.00000000	     89.32003506	    -11.15753155	     55.58665225	     37.93127471	     86.59724516	      0.00000000	      0.00000000
      1.31500000	      2.69346316	      1.47127292	      2.17773192	     -0.30049618	      1.05601607	     -1.13193066	      0.37425381	     -3.18301025	     -0.52757291	     77.47428802	      1.35218141	     -5.70021282	      0.00000000	      0.00000000	      5.95652824	      5.42494112	     -2.25318576	     17.15046135	      0.29933202	     -4.20459864	      0.00000000	      0.00000000	    -18.43102836	     -7.44582718	     -0.68813056	     79.51263293	     -1.79950199	     31.47924149	     35.23114101	     86.01004550	      0.00000000	      0.00000000	     89.34464323	    -11.27875184	     55.60288159	     38.09390831	     86.60297619	      0.00000000	      0.00000000
      1.32000000	      2.58338468	      1.50682099	      2.31216426	     -0.30073775	      1.05598429	     -1.13208683	      0.45055964	     -3.20373849	     -0.58481885	     77.41780333	      1.35119557	     -5.76674913	      0.00000000	      0.00000000	      6.05812297	      5.47627545	     -2.03698357	     17.07831645	      0.29807285	     -4.34809630	      0.00000000	      0.00000000	    -18.39830339	     -7.47949064	     -0.77962921	     79.50855752	     -1.82686530	     31.12273248	     35.19414523	     86.32650070	      0.00000000	      0.00000000	     89.32969878	    -11.05718710	     55.37501991	     37.87740754	     86.50714800	      0.00000000	      0.00000000
      1.32500000	      2.49303721	      1.51180184	      2.37882356	     -0.30089622	      1.05590677	     -1.13211118	      0.51681068	     -3.21060638	     -0.62509179	     77.36773072	      1.35032164	     -5.86953337	      0.00000000	      0.00000000	      6.16212641	      5.47501217	     -2.01386866	     17.05028735	      0.29758365	     -4.47127663	      0.00000000	      0.00000000	    -18.37994439	     -7.46946933	     -0.88496836	     79.59676723	     -1.83644615	     31.39521551	     35.17286239	     86.37220855	      0.00000000	      0.00000000	     89.34431089	    -11.05577905	     55.24218950	     37.83158691	     86.42489363	      0.00000000	      0.00000000
      1.33000000	      2.31652511	      1.47179397	      2.43563174	     -0.30160963	      1.05591082	     -1.13215377	      0.74359283	     -3.12264715	     -0.56487758	     77.37500084	      1.35044852	     -5.90914995	      0.00000000	      0.00000000	      6.46157093	      5.42627428	     -1.92064971	     17.23474562	      0.30080306	     -4.30264298	      0.00000000	      0.00000000	    -18.33810768	     -7.42573689	     -0.94465595	     79.66804975	     -1.80039176	     31.25221435	     35.10979337	     86.33026080	      0.00000000	      0.00000000	     89.35989232	    -11.03966787	     54.97706108	     37.81943895	     86.47151664	      0.00000000	      0.00000000
      1.33500000	      2.21099073	      1.47174985	      2.50347953	     -0.30178090	      1.05586174	     -1.13214876	      0.80990189	     -3.08490671	     -0.55073056	     77.29136206	      1.34898875	     -6.01509086	      0.00000000	      0.00000000	      6.58203536	      5.41183285	     -1.92228808	     17.19805358	      0.30016266	     -4.47515470	      0.00000000	      0.00000000	    -18.30880629	     -7.42859252	     -0.98061287	     79.71053104	     -1.87853725	     31.34969798	     35.16250707	     86.32590955	      0.00000000	      0.00000000	     89.36947213	    -10.95576051	     54.86064822	     37.75718183	     86.48031072	      0.00000000	      0.00000000
      1.34000000	      2.12239551	      1.48660710	      2.53391546	     -0.30199494	      1.05577737	     -1.13211415	      0.86871971	     -3.07512411	     -0.51815524	     77.24690525	      1.34821283	     -6.01526264	      0.00000000	      0.00000000	      6.70765907	      5.41810953	     -1.93139454	     17.24429320	      0.30096969	     -4.43045416	      0.00000000	      0.00000000	    -18.29480439	     -7.45374073	     -1.00554223	     79.72991010	     -1.91228677	     31.26520022	     35.18171319	     86.31856127	      0.00000000	      0.00000000	     89.38980277	    -10.90813623	     54.77119588	     37.71771538	     86.48997877	      0.00000000	      0.00000000
      1.34500000	      2.07036705	      1.47026821	      2.59652041	     -0.30219346	      1.05575211	     -1.13209697	      0.86918456	     -3.02501268	     -0.51856449	     77.17899596	      1.34702759	     -6.00320617	      0.00000000	      0.00000000	      6.79839561	      5.38112369	     -1.93909460	     17.25927482	      0.30123117	     -4.57024106	      0.00000000	      0.00000000	    -18.31871854	     -7.42667723	     -1.08389900	     79.80669079	     -1.90425506	     31.40543827	     35.14093658	     86.32604285	      0.00000000	      0.00000000	     89.40460234	    -10.93952637	     54.65175273	     37.75718500	     86.50217356	      0.00000000	      0.00000000
